<svg width="132" height="132" viewBox="0 0 132 132" fill="none" xmlns="http://www.w3.org/2000/svg">
<path d="M11.88 36.96C11.88 31.1256 15.9558 26.4 20.988 26.4H46.035L52.866 34.32H93.852C98.8842 34.32 102.96 39.0456 102.96 44.88V95.04C102.96 100.874 98.8842 105.6 93.852 105.6H20.988C15.9558 105.6 11.88 100.874 11.88 95.04V36.96Z" fill="white"/>
<path d="M11.88 36.96C11.88 31.1256 15.9558 26.4 20.988 26.4H46.035L52.866 34.32H93.852C98.8842 34.32 102.96 39.0456 102.96 44.88V95.04C102.96 100.874 98.8842 105.6 93.852 105.6H20.988C15.9558 105.6 11.88 100.874 11.88 95.04V36.96Z" fill="black" fill-opacity="0.1"/>
<path d="M11.88 36.96C11.88 31.1256 15.9558 26.4 20.988 26.4H46.035L52.866 34.32H93.852C98.8842 34.32 102.96 39.0456 102.96 44.88V95.04C102.96 100.874 98.8842 105.6 93.852 105.6H20.988C15.9558 105.6 11.88 100.874 11.88 95.04V36.96Z" stroke="black" stroke-width="6"/>
<path d="M26.1307 54.853C27.6846 50.4582 31.8399 47.52 36.5014 47.52H110.22C115.052 47.52 118.43 52.2985 116.82 56.8535L103.277 95.156C100.98 100.98 99.1865 105.6 94.1369 105.6H21.0197C15.97 105.6 11.88 100.926 11.88 95.156L26.1307 54.853Z" fill="white" stroke="black" stroke-width="6"/>
</svg>
